<?xml version="1.0" encoding="utf-8"?>
<!-- Generator: Adobe Illustrator 25.2.0, SVG Export Plug-In . SVG Version: 6.00 Build 0)  -->
<svg version="1.1" baseProfile="basic" id="Layer_1"
	 xmlns="http://www.w3.org/2000/svg" xmlns:xlink="http://www.w3.org/1999/xlink" x="0px" y="0px" viewBox="0 0 73.49 21.29"
	 xml:space="preserve">
<g>
	<path fill="#FFFFFF" d="M7.34,16.51L2.28,4.82h-0.1v11.69H0V0h2.35l4.9,11.3h0.1V0h2.18v16.51H7.34z"/>
	<path fill="#FFFFFF" d="M13.48,16.19c-0.58-0.34-0.96-0.93-1.13-1.76s-0.25-2.18-0.25-4.03c0-1.86,0.08-3.2,0.25-4.03
		s0.54-1.42,1.13-1.76c0.58-0.34,1.53-0.52,2.84-0.52s2.26,0.17,2.84,0.52c0.58,0.34,0.96,0.93,1.13,1.76s0.25,2.18,0.25,4.03
		c0,1.86-0.08,3.2-0.25,4.03s-0.54,1.42-1.13,1.76c-0.58,0.34-1.53,0.52-2.84,0.52S14.06,16.53,13.48,16.19z M17.77,14.6
		c0.28-0.2,0.46-0.59,0.53-1.16c0.07-0.58,0.11-1.59,0.11-3.05c0-1.46-0.04-2.47-0.11-3.05c-0.07-0.58-0.25-0.96-0.53-1.16
		c-0.28-0.2-0.76-0.3-1.45-0.3c-0.7,0-1.19,0.1-1.46,0.3c-0.27,0.2-0.44,0.58-0.52,1.15c-0.07,0.57-0.11,1.59-0.11,3.06
		c0,1.47,0.04,2.49,0.11,3.06c0.07,0.57,0.24,0.95,0.52,1.15c0.27,0.2,0.76,0.3,1.46,0.3C17.01,14.9,17.49,14.8,17.77,14.6z"/>
	<path fill="#FFFFFF" d="M23.57,16.51V6.07h-1.68v-1.8h1.68V0.72h2.16v3.55h2.02v1.8h-2.02v10.44H23.57z"/>
	<path fill="#FFFFFF" d="M37.3,11.06h-6.05c0,1.18,0.06,2.03,0.17,2.53c0.11,0.5,0.35,0.85,0.71,1.03s0.97,0.28,1.84,0.28
		c0.88,0,1.88-0.08,3-0.24v1.68c-0.38,0.1-0.9,0.18-1.55,0.25s-1.28,0.11-1.88,0.11c-1.33,0-2.3-0.19-2.92-0.58
		c-0.62-0.38-1.02-1-1.2-1.84c-0.18-0.84-0.28-2.13-0.28-3.88c0-1.73,0.08-3.01,0.25-3.85c0.17-0.84,0.55-1.46,1.14-1.87
		c0.59-0.41,1.54-0.61,2.86-0.61c1.25,0,2.14,0.19,2.69,0.58c0.54,0.38,0.88,0.98,1.02,1.8s0.2,2.13,0.2,3.94V11.06z M31.96,6.1
		c-0.28,0.18-0.46,0.51-0.55,1.01c-0.09,0.5-0.14,1.32-0.16,2.47h4.01V9.38c0-1.09-0.05-1.88-0.16-2.36
		c-0.1-0.49-0.28-0.81-0.54-0.96c-0.26-0.15-0.66-0.23-1.22-0.23C32.7,5.83,32.24,5.92,31.96,6.1z"/>
	<path fill="#FFFFFF" d="M39.89,16.51V0h2.28v14.5h4.97v2.02H39.89z"/>
	<path fill="#FFFFFF" d="M49.22,21.1v-1.68c0.75,0.05,1.66,0.07,2.74,0.07c0.86,0,1.49-0.12,1.88-0.35s0.64-0.61,0.74-1.13
		c0.1-0.52,0.16-1.35,0.16-2.48v-0.6H54.6c-0.19,0.54-0.51,0.96-0.95,1.25c-0.44,0.29-1.06,0.43-1.86,0.43
		c-0.88,0-1.54-0.17-1.97-0.52c-0.43-0.34-0.72-0.86-0.85-1.55c-0.14-0.69-0.2-1.68-0.2-2.98v-7.3h2.14v6.94
		c0,1.1,0.04,1.89,0.13,2.36c0.09,0.47,0.25,0.78,0.49,0.92c0.24,0.14,0.64,0.22,1.2,0.22c0.64,0,1.1-0.14,1.38-0.43
		c0.28-0.29,0.46-0.7,0.53-1.24s0.11-1.35,0.11-2.44V4.27h2.14v10.61c0,1.68-0.1,2.96-0.3,3.83s-0.62,1.52-1.25,1.94
		c-0.63,0.42-1.6,0.64-2.92,0.64C51.18,21.29,50.12,21.22,49.22,21.1z"/>
	<path fill="#FFFFFF" d="M61.01,16.61c-0.64-0.06-1.18-0.14-1.63-0.22v-1.68c0.96,0.14,1.98,0.22,3.05,0.22
		c0.56,0,0.98-0.06,1.27-0.19c0.29-0.13,0.48-0.32,0.56-0.56s0.13-0.6,0.13-1.04c0-0.53-0.03-0.91-0.08-1.14
		c-0.06-0.23-0.16-0.38-0.3-0.46s-0.39-0.13-0.74-0.18l-2.3-0.34c-0.7-0.11-1.19-0.41-1.46-0.9c-0.27-0.49-0.41-1.3-0.41-2.44
		c0-1.39,0.32-2.34,0.97-2.84c0.65-0.5,1.61-0.76,2.89-0.76c0.53,0,1.08,0.03,1.64,0.1c0.57,0.06,1.02,0.14,1.36,0.24V6.1
		c-0.8-0.16-1.74-0.24-2.81-0.24c-0.72,0-1.22,0.12-1.51,0.35c-0.29,0.23-0.43,0.7-0.43,1.4c0,0.48,0.03,0.83,0.08,1.04
		c0.06,0.22,0.15,0.36,0.29,0.44s0.36,0.14,0.68,0.19l2.11,0.29c0.5,0.06,0.89,0.2,1.19,0.4c0.3,0.2,0.52,0.54,0.68,1.01
		c0.16,0.47,0.24,1.16,0.24,2.05c0,1.39-0.3,2.35-0.89,2.88c-0.59,0.53-1.54,0.79-2.83,0.79C62.23,16.7,61.65,16.67,61.01,16.61z"/>
	<path fill="#FFFFFF" d="M69.31,16.51V6.07h-1.68v-1.8h1.68V0.72h2.16v3.55h2.02v1.8h-2.02v10.44H69.31z"/>
</g>
</svg>
